<?xml version="1.0" standalone="no"?>
<!DOCTYPE svg PUBLIC "-//W3C//DTD SVG 20010904//EN"
 "http://www.w3.org/TR/2001/REC-SVG-20010904/DTD/svg10.dtd">
<svg version="1.0" xmlns="http://www.w3.org/2000/svg"
 width="493.000000pt" height="493.000000pt" viewBox="0 0 493.000000 493.000000"
 preserveAspectRatio="xMidYMid meet">
<metadata>
Created by potrace 1.11, written by Peter Selinger 2001-2013
</metadata>
<g transform="translate(0.000000,493.000000) scale(0.100000,-0.100000)"
fill="#000000" stroke="none">
<path d="M2545 4905 c-151 -22 -216 -24 -355 -9 -268 29 -388 -6 -555 -161
-180 -168 -326 -267 -595 -406 -384 -197 -530 -415 -566 -839 -10 -126 -24
-200 -61 -317 -80 -260 -85 -282 -88 -409 -1 -66 1 -144 6 -173 4 -29 11 -89
14 -134 8 -99 36 -217 66 -283 33 -71 112 -175 221 -290 88 -93 97 -107 119
-175 28 -92 89 -209 165 -320 32 -46 60 -86 63 -89 4 -3 33 -39 65 -80 82
-103 181 -215 244 -274 l52 -50 0 -446 0 -445 233 0 232 0 3 319 2 318 33 -6
c17 -4 43 -9 57 -12 14 -2 47 -9 73 -14 168 -35 588 -35 825 0 156 22 343 72
439 116 17 7 34 14 37 14 4 0 6 -143 6 -318 0 -174 0 -341 0 -369 l0 -53 235
0 235 0 0 499 c0 387 3 501 13 509 6 5 75 42 152 82 182 93 238 136 301 230
66 98 118 256 170 518 7 34 46 132 102 257 44 97 77 194 98 290 9 44 12 347 3
438 -12 127 -29 239 -53 352 -13 61 -55 174 -102 278 -29 65 -70 170 -89 234
-105 334 -237 518 -445 619 -36 18 -123 60 -195 94 l-130 62 -155 158 c-162
166 -238 225 -339 265 -80 31 -113 36 -261 39 -90 2 -167 -3 -275 -19z"/>
</g>
</svg>
